<svg xmlns="http://www.w3.org/2000/svg"
 xmlns:xlink="http://www.w3.org/1999/xlink"
 width="18px" height="20px"  viewBox="0 0 776 804">
<path fill-rule="evenodd"  fill="#fff"
 d="M171.13005,161.0198 C289.2891,54.244232 466.1197,52.6114 585.9131,150.08092 C585.9131,150.08092 490.9609,153.67303 490.9609,153.67303 C478.70294,154.1625 469.22446,164.28494 469.71484,176.53017 C470.20538,188.44843 480.0111,197.75443 491.7777,197.75443 C492.10498,197.75443 492.26816,197.75443 492.59537,197.75443 C492.59537,197.75443 638.37317,192.36703 638.37317,192.36703 C650.3039,191.87714 659.6192,182.24406 659.6192,170.3258 C659.6192,170.3258 659.6192,168.69345 659.6192,168.69345 C659.6192,168.36658 659.6192,168.20355 659.6192,167.87706 C659.6192,167.87706 659.6192,167.71355 659.6192,167.71355 C659.6192,167.71355 659.6192,167.71355 659.6192,167.71355 C659.6192,167.71355 654.2264,23.713448 654.2264,23.713448 C653.73596,11.468651 643.43976,1.9991417 631.3459,2.4891396 C619.08887,2.9785175 609.61035,13.101484 610.1008,25.346281 C610.1008,25.346281 613.5319,115.63191 613.5319,115.63191 C554.20764,67.14197 481.15515,39.06031 403.0361,35.142185 C306.2863,30.244257 213.29492,63.387253 141.54958,128.36661 C42.83857,217.67293 1.0005665,353.50995 32.379135,482.81613 C34.830353,492.93906 43.81887,499.63242 53.788353,499.63242 C55.58592,499.63242 57.220352,499.46942 59.018005,498.97952 C70.78505,496.04083 78.139175,484.12204 75.19757,472.36728 C47.741352,358.73438 84.34923,239.38722 171.13005,161.0198 ZM743.6216,321.67322 C740.68,309.91794 728.74927,302.57126 716.9827,305.5099 C705.21606,308.4486 697.8616,320.36685 700.80316,332.12213 C728.423,445.75494 691.651,565.1017 604.8702,643.4696 C543.9115,698.4899 467.42682,725.59216 391.2686,725.59216 C318.54333,725.59216 245.98076,700.9387 187.47327,652.2857 C187.47327,652.2857 283.56946,643.6326 283.56946,643.6326 C295.6628,642.48975 304.6518,631.87775 303.50784,619.63306 C302.36377,607.3873 291.74133,598.5712 279.48376,599.7141 C279.48376,599.7141 134.19543,612.7758 134.19543,612.7758 C122.10157,613.91864 113.1131,624.5306 114.25705,636.77527 C114.25705,636.77527 127.331314,781.9183 127.331314,781.9183 C128.31161,793.34717 137.95432,802.0003 149.23096,802.0003 C149.88452,802.0003 150.5381,802.0003 151.19214,801.8373 C163.28554,800.6944 172.27414,790.0815 171.13005,777.8368 C171.13005,777.8368 163.28554,689.5099 163.28554,689.5099 C222.61023,737.50995 295.3365,765.429 372.96515,769.3466 C379.17566,769.67365 385.38522,769.8366 391.43262,769.8366 C481.4815,769.8366 567.1182,736.85706 634.45166,676.1223 C733.1622,586.8165 774.9997,451.14236 743.6216,321.67322 Z"/>
</svg>