<svg xmlns="http://www.w3.org/2000/svg"
 xmlns:xlink="http://www.w3.org/1999/xlink"
 width="100px" height="95px"  viewBox="0 0 490 516">
<path fill-rule="evenodd"  fill="#ffffff"
 d="M244.99898,247.24347 C217.28001,247.24347 194.7298,269.79144 194.7298,297.50537 C194.7298,325.21933 217.281,347.76727 244.99898,347.76727 C251.49391,347.76727 257.8328,346.53427 263.84167,344.10327 C267.87827,342.47028 269.8265,337.8743 268.1933,333.8383 C266.56006,329.8023 261.9604,327.8543 257.92682,329.4873 C253.80623,331.1543 249.45662,332.0003 244.99898,332.0003 C225.97525,332.0003 210.49905,316.52533 210.49905,297.50537 C210.49905,278.4844 225.97627,263.01044 244.99898,263.01044 C264.0217,263.01044 279.4989,278.4854 279.4989,297.50537 C279.4989,302.43637 278.47076,307.20935 276.44348,311.69235 C274.6502,315.66034 276.41248,320.33032 280.37906,322.12332 C284.3486,323.91733 289.01825,322.15533 290.81152,318.18832 C293.76895,311.65033 295.26718,304.69235 295.26718,297.50537 C295.26816,269.79044 272.71692,247.24347 244.99898,247.24347 ZM315.74307,417.9341 C297.19342,417.9341 282.1023,433.0231 282.1023,451.57007 C282.1023,470.117 297.19342,485.206 315.74307,485.206 C334.29272,485.206 349.38388,470.118 349.38388,451.57007 C349.3849,433.0221 334.29373,417.9341 315.74307,417.9341 ZM315.74307,469.43802 C305.88867,469.43802 297.87155,461.42203 297.87155,451.56906 C297.87155,441.71606 305.88867,433.7001 315.74307,433.7001 C325.5975,433.7001 333.61462,441.71606 333.61462,451.56906 C333.61462,461.42203 325.59848,469.43802 315.74307,469.43802 ZM486.38846,197.76556 C486.38846,197.76556 449.15414,160.53665 449.15414,160.53665 C447.67593,159.05765 445.67065,158.22766 443.57938,158.22766 C441.48804,158.22766 439.4828,159.05765 438.00455,160.53665 C438.00455,160.53665 407.83023,190.7066 407.83023,190.7066 C404.6578,189.18161 401.1683,188.35059 397.54477,188.35059 C393.4252,188.35059 389.47162,189.40659 385.9711,191.36359 C385.9711,191.36359 357.93112,169.71463 357.93112,169.71463 C354.4826,167.05365 349.53394,167.69064 346.87152,171.13562 C344.21014,174.58264 344.84723,179.53262 348.29276,182.1936 C348.29276,182.1936 375.4975,203.19858 375.4975,203.19858 C373.46622,208.22455 373.2412,214.03656 374.84644,219.21555 C374.84644,219.21555 366.89838,225.92053 366.89838,225.92053 C366.89838,225.92053 303.92838,177.30261 303.92838,177.30261 C303.92838,177.30261 303.92838,147.94168 303.92838,147.94168 C303.92838,147.94168 323.20618,162.82565 323.20618,162.82565 C326.65265,165.48566 331.60327,164.84964 334.26575,161.40466 C336.92712,157.95865 336.29004,153.00867 332.84454,150.34668 C332.84454,150.34668 303.9294,128.02072 303.9294,128.02072 C303.9294,128.02072 303.9294,111.38776 303.9294,111.38776 C303.9294,107.03375 300.3989,103.50476 296.0453,103.50476 C296.0453,103.50476 286.03583,103.50476 286.03583,103.50476 C286.03583,103.50476 286.03583,94.92978 286.03583,94.92978 C286.03583,94.92978 317.74338,94.92978 317.74338,94.92978 C320.32474,94.92978 322.74207,93.66678 324.21628,91.5488 C325.69052,89.43082 326.03357,86.72482 325.13644,84.30582 C325.13644,84.30582 296.50632,7.141968 296.50632,7.141968 C295.35916,4.0509644 292.41174,2.0 289.11328,2.0 C289.11328,2.0 200.88368,2.0 200.88368,2.0 C197.62222,2.0 194.6988,4.0069885 193.52661,7.0489807 C193.52661,7.0489807 185.19545,28.662933 185.19545,28.662933 C183.62921,32.72592 185.6535,37.28891 189.71709,38.853912 C193.78165,40.421906 198.3443,38.395905 199.90955,34.332916 C199.90955,34.332916 206.29646,17.766937 206.29646,17.766937 C206.29646,17.766937 283.6305,17.766937 283.6305,17.766937 C283.6305,17.766937 306.40973,79.16083 306.40973,79.16083 C306.40973,79.16083 278.15274,79.16083 278.15274,79.16083 C278.15274,79.16083 211.84924,79.16083 211.84924,79.16083 C211.84924,79.16083 182.63008,79.16083 182.63008,79.16083 C182.63008,79.16083 187.75479,65.865845 187.75479,65.865845 C189.32103,61.802856 187.29674,57.23987 183.23315,55.674866 C179.16957,54.106873 174.60594,56.132874 173.04068,60.19586 C173.04068,60.19586 163.78438,84.20981 163.78438,84.20981 C162.85025,86.634796 163.17027,89.3638 164.64049,91.5058 C166.10971,93.6478 168.54306,94.927795 171.14142,94.927795 C171.14142,94.927795 203.96312,94.927795 203.96312,94.927795 C203.96312,94.927795 203.96312,103.50278 203.96312,103.50278 C203.96312,103.50278 193.95369,103.50278 193.95369,103.50278 C189.59906,103.50278 186.06955,107.032776 186.06955,111.38574 C186.06955,111.38574 186.06955,128.01874 186.06955,128.01874 C186.06955,128.01874 104.02784,191.3616 104.02784,191.3616 C100.52733,189.40561 96.57576,188.3486 92.454185,188.3486 C88.829666,188.3486 85.34118,189.17859 82.16871,190.70459 C82.16871,190.70459 51.995415,160.53564 51.995415,160.53564 C50.517193,159.05667 48.511917,158.22665 46.420605,158.22665 C44.329323,158.22665 42.324017,159.05667 40.84582,160.53564 C40.84582,160.53564 3.6114845,197.76459 3.6114845,197.76459 C1.821245,199.55359 1.0001161,202.09357 1.4021754,204.59155 C1.4021754,204.59155 10.490471,261.03644 10.490471,261.03644 C4.1175785,270.29742 5.0286922,283.0954 13.259865,291.32437 C17.752502,295.81638 23.728357,298.29138 30.082266,298.29138 C32.524635,298.29138 34.90698,297.91937 37.173298,297.2144 C37.173298,297.2144 43.967262,305.26535 43.967262,305.26535 C41.27189,309.19034 39.810673,313.82434 39.810673,318.68832 C39.810673,325.04233 42.285034,331.0173 46.77866,335.5083 C51.271297,340.00128 57.24715,342.47528 63.60106,342.4763 C67.08856,342.4763 70.44904,341.70728 73.52549,340.2923 C73.52549,340.2923 79.441315,347.30328 79.441315,347.30328 C76.395905,351.38226 74.72566,356.29626 74.72566,361.48026 C74.72566,367.83423 77.20002,373.80823 81.69364,378.3002 C86.18629,382.79318 92.16214,385.2682 98.516045,385.2682 C102.3266,385.2682 105.99512,384.3612 109.29458,382.6792 C109.29458,382.6792 114.9154,389.34018 114.9154,389.34018 C111.5009,393.55716 109.63864,398.76917 109.63864,404.27014 C109.63864,410.62415 112.113,416.5981 116.60663,421.09012 C121.10028,425.58212 127.07512,428.0581 133.43004,428.0581 C138.59778,428.0581 143.49947,426.39612 147.57205,423.3691 C147.57205,423.3691 147.57205,454.05005 147.57205,454.05005 C147.57205,458.40405 151.10257,461.93304 155.45619,461.93304 C159.8098,461.93304 163.34032,458.40305 163.34032,454.05005 C163.34032,454.05005 163.34032,404.73715 163.34032,404.73715 C163.34032,404.73715 163.34032,359.75323 163.34032,359.75323 C163.34032,359.75323 163.34032,327.03732 163.34032,327.03732 C163.34032,327.03732 163.34032,302.27835 163.34032,302.27737 C163.34032,266.71542 187.37175,234.4155 221.3746,224.11652 C229.0237,221.79953 237.00784,220.63254 244.99898,220.63254 C278.23874,220.63254 308.89612,241.61148 321.03384,272.5414 C324.73535,281.9724 326.65665,292.14737 326.65665,302.28036 C326.65665,302.28036 326.65665,327.0393 326.65665,327.0393 C326.65665,327.0393 326.65665,359.75525 326.65665,359.75525 C326.65665,359.75525 326.65665,390.09317 326.65665,390.09317 C323.06012,389.4582 319.3946,389.14227 315.7421,389.14227 C281.31418,389.14227 253.30316,417.14822 253.30316,451.57214 C253.30316,464.93512 257.7528,478.053 265.65793,488.80707 C268.1243,492.16208 270.9557,495.21906 274.05313,497.99805 C274.13815,498.07507 274.21814,498.15704 274.30417,498.23306 C274.30417,498.23306 163.34032,498.23306 163.34032,498.23306 C163.34032,498.23306 163.34032,485.5861 163.34032,485.5861 C163.34032,481.231 159.8098,477.7031 155.45619,477.7031 C151.10156,477.7031 147.57205,481.2321 147.57205,485.5861 C147.57205,485.5861 147.57205,506.117 147.57205,506.117 C147.57205,510.47202 151.10257,514.0 155.45619,514.0 C155.45619,514.0 315.74408,514.0 315.74408,514.0 C315.74408,514.0 334.5428,514.0 334.5428,514.0 C338.2043,514.0 341.27274,511.501 342.16187,508.119 C363.41888,498.15106 378.183,476.558 378.183,451.57104 C378.183,441.27518 375.66162,431.5621 371.228,422.99213 C371.98312,422.40213 372.71024,421.7741 373.3933,421.09213 C377.88696,416.60013 380.36133,410.62515 380.36133,404.27216 C380.36133,398.77017 378.49902,393.55917 375.08456,389.3422 C375.08456,389.3422 380.70535,382.68118 380.70535,382.68118 C384.00485,384.3632 387.67236,385.2702 391.48392,385.2702 C397.8388,385.2702 403.81366,382.7962 408.30634,378.30222 C416.7495,369.86023 417.48062,356.61526 410.55563,347.30826 C410.55563,347.30826 416.4745,340.2953 416.4745,340.2953 C419.55093,341.7104 422.9114,342.47928 426.3989,342.47928 C432.7538,342.47928 438.72867,340.00528 443.2213,335.5123 C447.71396,331.0203 450.1893,325.04532 450.19028,318.6913 C450.19028,313.82733 448.7291,309.19235 446.0337,305.26837 C446.0337,305.26837 452.82767,297.21637 452.82767,297.21637 C455.094,297.92038 457.47733,298.29337 459.91968,298.29337 C466.2746,298.29337 472.24945,295.81937 476.74207,291.3264 C481.2347,286.8334 483.7111,280.8594 483.7111,274.5064 C483.7111,269.61844 482.23386,264.96445 479.51248,261.02744 C479.51248,261.02744 488.5988,204.59457 488.5988,204.59457 C488.99982,202.09357 488.17868,199.55457 486.38846,197.76556 ZM219.73238,94.927795 C219.73238,94.927795 270.2666,94.927795 270.2666,94.927795 C270.2666,94.927795 270.2666,103.50278 270.2666,103.50278 C270.2666,103.50278 219.73238,103.50278 219.73238,103.50278 C219.73238,103.50278 219.73238,94.927795 219.73238,94.927795 ZM201.83582,181.1756 C201.83582,181.1756 201.8368,181.1756 201.8368,181.1756 C201.8368,181.1756 201.8368,131.8937 201.8368,131.8937 C201.8368,131.8937 201.8368,119.27173 201.8368,119.27173 C201.8368,119.27173 211.84625,119.27173 211.84625,119.27173 C211.84625,119.27173 278.14972,119.27173 278.14972,119.27173 C278.14972,119.27173 288.15915,119.27173 288.15915,119.27173 C288.15915,119.27173 288.15915,182.89462 288.15915,182.89462 C288.15915,182.89462 201.8368,182.89462 201.8368,182.89462 C201.8368,182.89462 201.8368,181.1756 201.8368,181.1756 C201.8368,181.1756 201.83582,181.1756 201.83582,181.1756 ZM186.06856,147.94067 C186.06856,147.94067 186.06856,177.30261 186.06856,177.30261 C186.06856,177.30261 123.098564,225.92151 123.098564,225.92151 C123.098564,225.92151 115.16745,219.22952 115.16745,219.22952 C115.87154,216.96353 116.2446,214.58054 116.2446,212.13855 C116.2446,209.02057 115.641495,205.99756 114.50333,203.19357 C114.50333,203.19357 186.06856,147.94067 186.06856,147.94067 ZM46.419617,177.25961 C46.419617,177.25961 70.055984,200.89359 70.055984,200.89359 C70.055984,200.89359 24.165424,246.77747 24.165424,246.77747 C24.165424,246.77747 17.6105,206.06656 17.6105,206.06656 C17.6105,206.06656 46.419617,177.25961 46.419617,177.25961 ZM35.7531,280.1754 C35.75008,280.1784 35.74709,280.18042 35.744102,280.1834 C35.468052,280.4584 35.127995,280.7384 34.702946,281.0394 C34.63592,281.0874 34.574932,281.1434 34.508926,281.1924 C33.206722,282.0574 31.679502,282.5244 30.08128,282.5244 C27.937979,282.5244 25.923676,281.6894 24.40847,280.1754 C21.281023,277.04742 21.281023,271.9594 24.40847,268.83142 C24.40847,268.83142 86.78338,206.46555 86.78338,206.46555 C88.298584,204.95056 90.31288,204.11658 92.4552,204.11658 C94.59748,204.11658 96.61277,204.95157 98.128006,206.46655 C98.135,206.47357 98.142,206.48257 98.148994,206.48956 C98.20301,206.55057 98.25001,206.61655 98.30603,206.67557 C100.8904,209.43857 101.17943,213.67953 98.99311,216.75653 C98.99311,216.75754 98.99213,216.75754 98.99213,216.75854 C98.688095,217.18652 98.40603,217.52954 98.12699,217.80753 C98.12699,217.80753 35.7531,280.1754 35.7531,280.1754 ZM50.11914,288.1084 C50.11914,288.1084 106.060135,232.1755 106.060135,232.1755 C106.060135,232.1755 111.710945,236.9425 111.710945,236.9425 C111.710945,236.9425 54.886814,293.7584 54.886814,293.7584 C54.886814,293.7584 50.11914,288.1084 50.11914,288.1084 ZM69.408905,324.2243 C69.408905,324.2243 69.271866,324.36133 69.271866,324.36133 C67.75666,325.8763 65.74137,326.71033 63.599056,326.71033 C61.45677,326.71033 59.441483,325.8753 57.92625,324.36032 C56.411045,322.8453 55.576912,320.83133 55.576912,318.68832 C55.576912,316.54633 56.41003,314.53235 57.92625,313.01633 C57.92625,313.01633 129.57748,241.37549 129.57748,241.37549 C131.0927,239.8605 133.107,239.0275 135.24931,239.0275 C137.3916,239.0275 139.40689,239.86148 140.92212,241.3765 C142.43733,242.89148 143.27145,244.90549 143.27145,247.04846 C143.27145,248.87848 142.65735,250.61148 141.5362,252.02347 C141.5322,252.02847 141.52621,252.03348 141.5212,252.04047 C141.4502,252.12946 141.38217,252.20746 141.31416,252.28748 C141.18713,252.43448 141.06015,252.58145 140.9211,252.72046 C140.9211,252.72046 69.408905,324.2243 69.408905,324.2243 ZM139.10085,409.94113 C137.58565,411.45615 135.57135,412.29013 133.42903,412.29013 C131.28572,412.29013 129.27145,411.45514 127.75622,409.94016 C126.24102,408.42514 125.40688,406.41113 125.40688,404.26917 C125.40688,402.12717 126.24102,400.11215 127.75622,398.59717 C127.75622,398.59717 147.57106,378.78522 147.57106,378.78522 C147.57106,378.78522 147.57106,401.47217 147.57106,401.47217 C147.57106,401.47217 147.57106,401.47217 147.57106,401.47217 C147.57106,401.47217 139.10085,409.94113 139.10085,409.94113 ZM147.57106,356.48825 C147.57106,356.48825 126.01399,378.0432 126.01399,378.0432 C126.01399,378.0432 121.2453,372.39322 121.2453,372.39322 C121.2453,372.39322 147.57106,346.07126 147.57106,346.07126 C147.57106,346.07126 147.57106,356.48825 147.57106,356.48825 ZM147.57106,302.27737 C147.57106,302.27737 147.57106,323.7723 147.57106,323.7723 C147.57106,323.7723 104.97097,366.36624 104.97097,366.36624 C104.97097,366.36624 104.18587,367.15024 104.18587,367.15024 C102.67066,368.66522 100.65537,369.49924 98.513054,369.49924 C96.37074,369.49924 94.35647,368.6642 92.84025,367.14923 C91.32501,365.63425 90.49091,363.62024 90.49091,361.47824 C90.49091,359.33624 91.32403,357.32126 92.84025,355.80624 C92.84025,355.80624 147.57707,301.07736 147.57707,301.07736 C147.57405,301.47836 147.57106,301.87836 147.57106,302.27737 ZM151.50963,274.85043 C151.50963,274.85043 90.4499,335.9013 90.4499,335.9013 C90.4499,335.9013 85.68222,330.2513 85.68222,330.2513 C85.68222,330.2513 116.62065,299.31738 116.62065,299.31738 C116.62065,299.31738 148.20816,267.73444 148.20816,267.73444 C148.20816,267.73444 152.58379,271.4254 152.58379,271.4254 C152.20471,272.55743 151.84769,273.69943 151.50963,274.85043 ZM244.99997,204.86557 C207.89368,204.86557 175.57108,225.71552 159.12271,256.31046 C159.12271,256.31046 157.6365,255.05646 157.6365,255.05646 C158.54362,252.51846 159.0417,249.82446 159.0417,247.04749 C159.0417,240.69348 156.56734,234.7185 152.0727,230.22751 C150.75053,228.90552 149.28531,227.78052 147.73509,226.81851 C147.73509,226.81851 187.89183,195.81458 187.89183,195.81458 C189.33804,197.55157 191.51634,198.65857 193.95369,198.65857 C193.95369,198.65857 296.0453,198.65857 296.0453,198.65857 C298.4836,198.65857 300.66193,197.55157 302.10812,195.81458 C302.10812,195.81458 342.26486,226.81851 342.26486,226.81851 C340.71265,227.77951 339.24945,228.9035 337.92624,230.22751 C331.2243,236.9295 329.39203,246.65948 332.3755,255.04645 C332.3755,255.04645 330.87823,256.30945 330.87823,256.30945 C314.42792,225.71552 282.10428,204.86557 244.99997,204.86557 ZM357.90912,471.561 C355.0297,477.608 350.8381,483.011 345.70837,487.31598 C340.4096,491.76297 334.13272,495.01797 327.41675,496.74997 C323.60822,497.73096 319.67667,498.23196 315.74307,498.23196 C290.0094,498.23196 269.07343,477.3 269.07343,451.57007 C269.07343,425.8402 290.0094,404.90717 315.74307,404.90717 C329.174,404.90717 342.19586,411.00912 351.02713,421.07913 C358.3582,429.4381 362.41174,440.47107 362.41174,451.57007 C362.41174,458.46704 360.87354,465.33304 357.90912,471.561 ZM362.25174,409.93015 C356.68195,403.69617 349.96298,398.67316 342.4269,395.11316 C342.4269,395.11316 342.4269,378.7862 342.4269,378.7862 C342.4269,378.7862 362.24173,398.59827 362.24173,398.59827 C363.75696,400.11325 364.59106,402.12717 364.59106,404.27026 C364.59006,406.40616 363.76096,408.41614 362.25174,409.93015 ZM363.985,378.0432 C363.985,378.0432 342.4279,356.48926 342.4279,356.48926 C342.4279,356.48926 342.4279,346.07126 342.4279,346.07126 C342.4279,346.07126 368.75366,372.39322 368.75366,372.39322 C368.75366,372.39322 363.985,378.0432 363.985,378.0432 ZM397.15674,367.1512 C395.6415,368.66623 393.62622,369.5002 391.48392,369.5002 C389.34058,369.5002 387.32632,368.66522 385.8111,367.1512 C385.8111,367.1512 342.4269,323.77332 342.4269,323.77332 C342.4269,323.77332 342.4269,302.27936 342.4269,302.27936 C342.4269,301.88037 342.4249,301.47937 342.4199,301.08035 C342.4199,301.08035 397.15674,355.80826 397.15674,355.80826 C400.28418,358.93423 400.28418,364.02423 397.15674,367.1512 ZM399.54807,335.9013 C399.54807,335.9013 338.48834,274.8514 338.48834,274.8514 C338.1503,273.7004 337.79324,272.55643 337.41418,271.42444 C337.41418,271.42444 341.7898,267.73343 341.7898,267.73343 C341.7898,267.73343 404.31573,330.2513 404.31573,330.2513 C404.31573,330.2513 399.54807,335.9013 399.54807,335.9013 ZM432.0707,324.36133 C430.55548,325.8763 428.5412,326.71033 426.3989,326.71033 C424.2566,326.71033 422.2413,325.8753 420.72607,324.36133 C420.72607,324.36133 349.07584,252.72147 349.07584,252.72147 C348.9248,252.57047 348.7868,252.41046 348.64978,252.25046 C348.59277,252.18347 348.5388,252.12045 348.47876,252.04547 C348.47577,252.04147 348.47076,252.03748 348.46677,252.03146 C345.9674,248.88547 346.16745,244.28448 349.07584,241.3775 C350.59116,239.86249 352.60635,239.0285 354.74866,239.0285 C356.89096,239.0285 358.90634,239.86249 360.42145,241.3775 C360.42145,241.3775 432.07172,313.01834 432.07172,313.01834 C433.5869,314.53333 434.42105,316.54733 434.42105,318.68933 C434.42105,320.83133 433.5869,322.8453 432.0707,324.36133 ZM435.11115,293.7584 C435.11115,293.7584 378.28702,236.9425 378.28702,236.9425 C378.28702,236.9425 383.93784,232.1755 383.93784,232.1755 C383.93784,232.1755 411.9078,260.14145 411.9078,260.14145 C411.9078,260.14145 439.8778,288.1074 439.8778,288.1074 C439.8778,288.1074 435.11115,293.7584 435.11115,293.7584 ZM465.59048,280.1754 C464.0753,281.6904 462.061,282.5244 459.91766,282.5244 C458.31845,282.5244 456.79123,282.0584 455.48904,281.1924 C455.42303,281.1424 455.36102,281.0864 455.29202,281.03842 C454.86496,280.7354 454.52292,280.4544 454.24387,280.1754 C454.24387,280.1754 391.86996,217.80954 391.86996,217.80954 C391.80795,217.74753 391.75595,217.68155 391.69693,217.61853 C391.47293,217.37454 391.24588,217.10052 391.00385,216.75955 C391.00385,216.75955 391.00385,216.75854 391.00385,216.75854 C388.81854,213.67856 389.10657,209.43857 391.68893,206.67557 C391.72797,206.63455 391.75894,206.58856 391.79697,206.54657 C391.82196,206.52155 391.84296,206.49255 391.86795,206.46756 C393.38318,204.95258 395.39847,204.11856 397.54077,204.11856 C399.68307,204.11856 401.69836,204.95355 403.21356,206.46756 C403.21356,206.46756 465.5875,268.83243 465.5875,268.83243 C468.71793,271.96042 468.71793,277.04742 465.59048,280.1754 ZM465.83353,246.77747 C465.83353,246.77747 419.94296,200.89359 419.94296,200.89359 C419.94296,200.89359 443.57938,177.25961 443.57938,177.25961 C443.57938,177.25961 472.38846,206.06458 472.38846,206.06458 C472.38846,206.06458 465.83353,246.77747 465.83353,246.77747 Z"/>
</svg>