<svg xmlns="http://www.w3.org/2000/svg"
 xmlns:xlink="http://www.w3.org/1999/xlink"
 width="88px" height="100px"  viewBox="0 0 515 456">
<path fill-rule="evenodd"  fill="#ffffff"
 d="M506.31665,186.21097 C506.31665,186.21097 432.0556,104.33914 432.0556,104.33914 C426.0809,98.369644 418.3987,94.95764 410.71655,94.95764 C410.71655,94.95764 332.1873,94.95764 332.1873,94.95764 C318.5304,94.95764 308.2875,106.04412 308.2875,118.8366 C308.2875,118.8366 308.2875,300.48978 308.2875,300.48978 C308.2875,300.48978 266.94977,300.48978 266.94977,300.48978 C266.94977,300.48978 298.65378,78.753174 298.65378,78.753174 C298.65378,78.753174 376.57288,78.753174 376.57288,78.753174 C381.6943,78.753174 385.10828,75.34219 385.10828,70.225204 C385.10828,65.108215 381.6943,61.697205 376.57288,61.697205 C376.57288,61.697205 295.05676,61.697205 295.05676,61.697205 C295.05676,61.697205 254.51227,13.085806 254.51227,13.085806 C253.65901,12.233302 251.0983,10.527298 249.39081,10.527298 C249.39081,10.527298 189.64088,1.9993534 189.64088,1.9993534 C187.08014,1.9993534 184.51941,2.85183 182.81192,4.557807 C182.81192,4.557807 158.05792,29.29027 158.05792,29.29027 C158.05792,29.29027 135.86464,43.788757 135.86464,43.788757 C135.86464,43.788757 88.06406,36.113262 88.06406,36.113262 C83.79585,35.260757 79.528656,37.819267 78.674416,41.23025 C78.674416,41.23025 54.987682,104.34013 54.987682,104.34013 C54.987682,104.34013 43.679474,104.34013 43.679474,104.34013 C40.265533,104.34013 36.85055,106.04614 35.14407,109.45712 C35.14407,109.45712 1.0003936,194.73997 1.0003936,194.73997 C1.0003936,196.44597 1.0003936,198.15096 1.0003936,199.85696 C1.0003936,199.85696 26.607653,310.72476 26.607653,310.72476 C26.607653,310.72476 26.607653,382.36264 26.607653,382.36264 C26.607653,393.4491 35.997326,402.83057 47.09345,402.83057 C47.09345,402.83057 52.818077,402.83057 52.818077,402.83057 C56.89423,431.96844 81.57922,454.0005 111.96584,454.0005 C142.35248,454.0005 167.03746,431.96844 171.11362,402.83057 C171.11362,402.83057 351.5698,402.83057 351.5698,402.83057 C355.64594,431.96844 380.33093,454.0005 410.71756,454.0005 C441.10416,454.0005 465.78915,431.96844 469.86533,402.83057 C469.86533,402.83057 492.66077,402.83057 492.66077,402.83057 C503.75693,402.83057 513.1466,393.4491 513.9998,382.36264 C513.9998,382.36264 513.9998,205.82645 513.9998,205.82645 C513.99884,198.15096 511.43808,191.32799 506.31665,186.21097 ZM496.07373,205.82645 C496.07373,205.82645 496.07373,232.26389 496.07373,232.26389 C496.07373,232.26389 368.0374,232.26389 368.0374,232.26389 C368.0374,232.26389 368.0374,146.98105 368.0374,146.98105 C368.0374,146.98105 445.71246,146.98105 445.71246,146.98105 C445.71246,146.98105 492.65878,198.15096 492.65878,198.15096 C493.29898,198.5777 493.83212,199.11038 494.27225,199.71005 C494.4923,200.00987 494.68933,200.32668 494.8644,200.6545 C495.74066,202.29552 496.07373,204.2274 496.07373,205.82645 ZM91.47904,54.02273 C91.47904,54.02273 135.86464,61.6982 135.86464,61.6982 C138.42535,61.6982 140.13284,61.6982 142.69356,59.13972 C142.69356,59.13972 168.30083,42.082752 168.30083,42.082752 C169.15405,42.082752 170.00832,41.23025 170.00832,41.23025 C170.00832,41.23025 192.2016,19.056293 192.2016,19.056293 C192.2016,19.056293 244.26935,26.731762 244.26935,26.731762 C244.26935,26.731762 273.2906,61.6982 273.2906,61.6982 C273.2906,61.6982 240.00113,61.6982 240.00113,61.6982 C239.57501,61.6982 239.1499,61.725197 238.72879,61.778164 C238.72478,61.77916 238.7198,61.77916 238.71579,61.78016 C238.32169,61.83013 237.93256,61.905083 237.55144,62.002045 C237.47842,62.020016 237.40642,62.042 237.33339,62.06199 C237.08432,62.131958 236.84024,62.212914 236.60019,62.302845 C234.47357,63.067413 232.59406,64.56053 231.46573,66.81519 C231.46573,66.81519 218.66208,99.223145 218.66208,99.223145 C216.95462,102.63413 214.39388,104.34013 210.97993,104.34013 C210.97993,104.34013 72.70071,104.34013 72.70071,104.34013 C72.70071,104.34013 91.47904,54.02273 91.47904,54.02273 ZM25.897436,232.2339 C26.131504,232.24892 26.365574,232.26389 26.607653,232.26389 C26.607653,232.26389 154.64395,232.26389 154.64395,232.26389 C159.76541,232.26389 163.17935,228.8529 163.17935,223.73592 C163.17935,218.61893 159.76541,215.20792 154.64395,215.20792 C154.64395,215.20792 26.607653,215.20792 26.607653,215.20792 C24.908173,215.20792 23.401728,215.5907 22.140388,216.28029 C22.140388,216.28029 18.072216,199.00446 18.072216,199.00446 C18.072216,199.00446 21.890297,189.62299 21.890297,189.62299 C21.890297,189.62299 111.96584,189.62299 111.96584,189.62299 C117.08731,189.62299 120.50125,186.21199 120.50125,181.09499 C120.50125,175.978 117.08731,172.56702 111.96584,172.56702 C111.96584,172.56702 28.830278,172.56702 28.830278,172.56702 C28.830278,172.56702 49.654194,121.3971 49.654194,121.3971 C49.654194,121.3971 60.75032,121.3971 60.75032,121.3971 C60.75032,121.3971 211.83316,121.3971 211.83316,121.3971 C222.07605,121.3971 231.46573,115.42761 234.8797,106.04614 C234.8797,106.04614 245.97586,78.75517 245.97586,78.75517 C245.97586,78.75517 280.97275,78.75517 280.97275,78.75517 C280.97275,78.75517 249.39081,300.49075 249.39081,300.49075 C249.39081,300.49075 41.972015,300.49075 41.972015,300.49075 C41.972015,300.49075 25.897436,232.2339 25.897436,232.2339 ZM111.964836,436.9435 C88.06507,436.9435 69.28576,418.18158 69.28576,394.3016 C69.28576,370.42264 88.06406,351.65967 111.964836,351.65967 C135.86464,351.65967 154.64395,370.42166 154.64395,394.3016 C154.64395,418.18158 135.86562,436.9435 111.964836,436.9435 ZM410.71655,436.9435 C386.81677,436.9435 368.0374,418.18158 368.0374,394.3016 C368.0374,370.42264 386.81577,351.65967 410.71655,351.65967 C434.6163,351.65967 453.39566,370.42166 453.39566,394.3016 C453.39566,418.18158 434.6163,436.9435 410.71655,436.9435 ZM492.6598,385.77362 C492.6598,385.77362 469.86432,385.77362 469.86432,385.77362 C465.78815,356.63577 441.10318,334.6037 410.71655,334.6037 C410.57852,334.6037 410.44247,334.6127 410.3044,334.6137 C410.1564,334.6127 410.01035,334.6037 409.86328,334.6037 C379.98782,334.6037 355.23483,356.77765 350.9666,385.77362 C350.9666,385.77362 171.11261,385.77362 171.11261,385.77362 C167.29051,358.45068 145.3443,337.38608 117.56945,334.86755 C117.36639,334.84857 117.16033,334.8386 116.95625,334.82156 C116.25708,334.76562 115.558876,334.70764 114.85267,334.67468 C113.895386,334.6287 112.93313,334.60272 111.964836,334.60272 C110.99658,334.60272 110.03429,334.6287 109.077034,334.67468 C108.37083,334.70764 107.67262,334.76462 106.97342,334.82156 C106.76938,334.8386 106.56332,334.84857 106.36025,334.86755 C78.58538,337.38608 56.639156,358.45068 52.81707,385.77362 C52.81707,385.77362 47.09345,385.77362 47.09345,385.77362 C45.385986,385.77362 43.679474,384.06763 43.679474,382.36264 C43.679474,382.36264 43.679474,317.54773 43.679474,317.54773 C43.679474,317.54773 257.073,317.54773 257.073,317.54773 C257.073,317.54773 325.35934,317.54773 325.35934,317.54773 C325.35934,317.54773 325.35934,119.6901 325.35934,119.6901 C325.35934,115.42562 328.7733,112.86711 332.1883,112.86711 C332.1883,112.86711 410.71655,112.86711 410.71655,112.86711 C414.13052,112.86711 416.69122,113.71961 419.25195,116.27812 C419.25195,116.27812 431.48642,129.92308 431.48642,129.92308 C431.48642,129.92308 365.4767,129.92308 365.4767,129.92308 C357.79453,129.92308 350.9656,136.74608 350.9656,144.42157 C350.9656,144.42157 350.9656,234.8214 350.9656,234.8214 C350.9656,242.49687 357.79453,249.31987 365.4767,249.31987 C365.4767,249.31987 496.07373,249.31987 496.07373,249.31987 C496.07373,249.31987 496.07373,291.9618 496.07373,291.9618 C496.07373,291.9618 453.39465,291.9618 453.39465,291.9618 C448.2732,291.9618 444.8592,295.37277 444.8592,300.48978 C444.8592,305.60675 448.2732,309.01767 453.39465,309.01767 C453.39465,309.01767 496.07373,309.01767 496.07373,309.01767 C496.07373,309.01767 496.07373,382.3615 496.07373,382.3615 C496.07373,384.06863 494.36725,385.77362 492.6598,385.77362 ZM111.964836,377.24564 C102.575195,377.24564 94.89301,384.92114 94.89301,394.3026 C94.89301,403.68408 102.575195,411.3596 111.964836,411.3596 C121.35451,411.3596 129.03668,403.68307 129.03668,394.3026 C129.03668,384.92212 121.35451,377.24564 111.964836,377.24564 ZM410.71655,377.24564 C401.32687,377.24564 393.64468,384.92114 393.64468,394.3026 C393.64468,403.68408 401.32687,411.3596 410.71655,411.3596 C420.1062,411.3596 427.7884,403.68408 427.7884,394.3026 C427.7884,384.92114 420.1062,377.24564 410.71655,377.24564 Z"/>
</svg>