<svg xmlns="http://www.w3.org/2000/svg"
 xmlns:xlink="http://www.w3.org/1999/xlink"
 width="100px" height="93px"  viewBox="0 0 514 480">
<path fill-rule="evenodd"  fill="#ffffff"
 d="M487.4,35.1427 C487.4,35.1427 486.57498,35.1427 486.57498,35.1427 C482.715,15.456258 465.697,1.0002564 444.73398,1.0002564 C423.771,1.0002564 406.753,15.456258 402.89297,35.1427 C402.89297,35.1427 392.70898,35.1427 392.70898,35.1427 C388.849,15.456258 371.831,1.0002564 350.86798,1.0002564 C329.905,1.0002564 312.887,15.456258 309.02698,35.1427 C309.02698,35.1427 298.843,35.1427 298.843,35.1427 C294.98297,15.456258 277.965,1.0002564 257.00198,1.0002564 C236.03897,1.0002564 219.021,15.456258 215.16098,35.1427 C215.16098,35.1427 204.97699,35.1427 204.97699,35.1427 C201.11697,15.456258 184.099,1.0002564 163.13599,1.0002564 C142.17297,1.0002564 125.155,15.456258 121.29498,35.1427 C121.29498,35.1427 111.11099,35.1427 111.11099,35.1427 C107.25098,15.456258 90.23297,1.0002564 69.26999,1.0002564 C48.306976,1.0002564 31.28897,15.456258 27.428986,35.1427 C27.428986,35.1427 26.599976,35.1427 26.599976,35.1427 C12.092987,35.1427 1.0,46.23878 1.0,60.7498 C1.0,60.7498 1.0,129.0357 1.0,129.0357 C1.0,129.0357 1.0,453.39258 1.0,453.39258 C1.0,467.9036 12.092987,478.9997 26.599976,478.9997 C26.599976,478.9997 487.4,478.9997 487.4,478.9997 C501.90698,478.9997 513.0,467.9036 513.0,453.39258 C513.0,453.39258 513.0,129.0357 513.0,129.0357 C513.0,129.0357 513.0,60.7498 513.0,60.7498 C513.0,46.23878 501.90698,35.1427 487.4,35.1427 ZM444.73297,18.070965 C456.224,18.070965 465.56598,25.035908 468.95697,35.1427 C468.95697,35.1427 420.50897,35.1427 420.50897,35.1427 C423.9,25.036905 433.24298,18.070965 444.73297,18.070965 ZM350.86697,18.070965 C362.35797,18.070965 371.69998,25.035908 375.09097,35.1427 C375.09097,35.1427 326.64297,35.1427 326.64297,35.1427 C330.033,25.036905 339.37598,18.070965 350.86697,18.070965 ZM257.0,18.070965 C268.491,18.070965 277.83298,25.035908 281.224,35.1427 C281.224,35.1427 232.77597,35.1427 232.77597,35.1427 C236.16699,25.036905 245.50897,18.070965 257.0,18.070965 ZM163.133,18.070965 C174.624,18.070965 183.96597,25.035908 187.357,35.1427 C187.357,35.1427 138.909,35.1427 138.909,35.1427 C142.29999,25.036905 151.64297,18.070965 163.133,18.070965 ZM69.267,18.070965 C80.757996,18.070965 90.099976,25.035908 93.491,35.1427 C93.491,35.1427 45.043,35.1427 45.043,35.1427 C48.432983,25.036905 57.77597,18.070965 69.267,18.070965 ZM18.066986,60.7498 C18.066986,55.62837 21.47998,52.21443 26.599976,52.21443 C26.599976,52.21443 93.491,52.21443 93.491,52.21443 C90.099976,62.320225 80.75699,69.28517 69.267,69.28517 C64.14697,69.28517 60.73398,72.699104 60.73398,77.82053 C60.73398,82.94194 64.14697,86.3559 69.267,86.3559 C90.22998,86.3559 107.247986,71.8999 111.10797,52.213436 C111.10797,52.213436 187.35797,52.213436 187.35797,52.213436 C183.96698,62.31923 174.624,69.28517 163.13397,69.28517 C158.01398,69.28517 154.60098,72.699104 154.60098,77.82053 C154.60098,82.94194 158.01398,86.3559 163.13397,86.3559 C184.09698,86.3559 201.11499,71.8999 204.97498,52.213436 C204.97498,52.213436 281.22498,52.213436 281.22498,52.213436 C277.83298,62.320225 268.491,69.28517 257.0,69.28517 C251.87997,69.28517 248.46698,72.699104 248.46698,77.82053 C248.46698,82.94194 251.87997,86.3569 257.0,86.3569 C277.96298,86.3569 294.981,71.9009 298.84097,52.21443 C298.84097,52.21443 375.09097,52.21443 375.09097,52.21443 C371.69998,62.320225 362.357,69.28616 350.86697,69.28616 C345.74698,69.28616 342.33398,72.7001 342.33398,77.82153 C342.33398,82.94294 345.74698,86.3569 350.86697,86.3569 C371.83,86.3569 388.848,71.9009 392.70798,52.21443 C392.70798,52.21443 468.95798,52.21443 468.95798,52.21443 C465.567,62.320225 456.224,69.28616 444.73398,69.28616 C439.61398,69.28616 436.201,72.7001 436.201,77.82153 C436.201,82.94294 439.61398,86.3569 444.73398,86.3569 C465.697,86.3569 482.715,71.9009 486.57498,52.21443 C486.57498,52.21443 487.4,52.21443 487.4,52.21443 C492.52,52.21443 495.93298,55.62837 495.93298,60.7498 C495.93298,60.7498 495.93298,120.499344 495.93298,120.499344 C495.93298,120.499344 18.066986,120.499344 18.066986,120.499344 C18.066986,120.499344 18.066986,60.7498 18.066986,60.7498 ZM495.93298,453.3916 C495.93298,458.51303 492.52,461.92694 487.4,461.92694 C487.4,461.92694 26.599976,461.92694 26.599976,461.92694 C21.47998,461.92694 18.066986,458.51303 18.066986,453.3916 C18.066986,453.3916 18.066986,137.57108 18.066986,137.57108 C18.066986,137.57108 495.934,137.57108 495.934,137.57108 C495.934,137.57108 495.934,453.3916 495.934,453.3916 C495.934,453.3916 495.93298,453.3916 495.93298,453.3916 ZM77.79999,239.99947 C77.79999,239.99947 129.0,239.99947 129.0,239.99947 C134.12,239.99947 137.53299,236.58553 137.53299,231.4641 C137.53299,231.4641 137.53299,180.24991 137.53299,180.24991 C137.53299,175.12848 134.12,171.71454 129.0,171.71454 C129.0,171.71454 77.79999,171.71454 77.79999,171.71454 C72.67999,171.71454 69.267,175.12848 69.267,180.24991 C69.267,180.24991 69.267,231.4641 69.267,231.4641 C69.267,236.58553 72.67999,239.99947 77.79999,239.99947 ZM86.33298,188.78528 C86.33298,188.78528 120.46597,188.78528 120.46597,188.78528 C120.46597,188.78528 120.46597,222.92772 120.46597,222.92772 C120.46597,222.92772 86.33298,222.92772 86.33298,222.92772 C86.33298,222.92772 86.33298,188.78528 86.33298,188.78528 ZM180.19998,239.99947 C180.19998,239.99947 231.4,239.99947 231.4,239.99947 C236.51999,239.99947 239.93298,236.58553 239.93298,231.4641 C239.93298,231.4641 239.93298,180.24991 239.93298,180.24991 C239.93298,175.12848 236.51999,171.71454 231.4,171.71454 C231.4,171.71454 180.19998,171.71454 180.19998,171.71454 C175.07999,171.71454 171.66699,175.12848 171.66699,180.24991 C171.66699,180.24991 171.66699,231.4641 171.66699,231.4641 C171.66699,236.58553 175.07999,239.99947 180.19998,239.99947 ZM188.73297,188.78528 C188.73297,188.78528 222.866,188.78528 222.866,188.78528 C222.866,188.78528 222.866,222.92772 222.866,222.92772 C222.866,222.92772 188.73297,222.92772 188.73297,222.92772 C188.73297,222.92772 188.73297,188.78528 188.73297,188.78528 ZM282.59998,239.99947 C282.59998,239.99947 333.8,239.99947 333.8,239.99947 C338.91998,239.99947 342.33298,236.58553 342.33298,231.4641 C342.33298,231.4641 342.33298,180.24991 342.33298,180.24991 C342.33298,175.12848 338.91998,171.71454 333.8,171.71454 C333.8,171.71454 282.59998,171.71454 282.59998,171.71454 C277.47998,171.71454 274.067,175.12848 274.067,180.24991 C274.067,180.24991 274.067,231.4641 274.067,231.4641 C274.067,236.58553 277.47998,239.99947 282.59998,239.99947 ZM291.133,188.78528 C291.133,188.78528 325.266,188.78528 325.266,188.78528 C325.266,188.78528 325.266,222.92772 325.266,222.92772 C325.266,222.92772 291.133,222.92772 291.133,222.92772 C291.133,222.92772 291.133,188.78528 291.133,188.78528 ZM385.0,239.99947 C385.0,239.99947 436.19998,239.99947 436.19998,239.99947 C441.31998,239.99947 444.73297,236.58553 444.73297,231.4641 C444.73297,231.4641 444.73297,180.24991 444.73297,180.24991 C444.73297,175.12848 441.31998,171.71454 436.19998,171.71454 C436.19998,171.71454 385.0,171.71454 385.0,171.71454 C379.87997,171.71454 376.46698,175.12848 376.46698,180.24991 C376.46698,180.24991 376.46698,231.4641 376.46698,231.4641 C376.46698,236.58553 379.87997,239.99947 385.0,239.99947 ZM393.533,188.78528 C393.533,188.78528 427.666,188.78528 427.666,188.78528 C427.666,188.78528 427.666,222.92772 427.666,222.92772 C427.666,222.92772 393.533,222.92772 393.533,222.92772 C393.533,222.92772 393.533,188.78528 393.533,188.78528 ZM77.79999,333.89246 C77.79999,333.89246 129.0,333.89246 129.0,333.89246 C134.12,333.89246 137.53299,330.47855 137.53299,325.35712 C137.53299,325.35712 137.53299,274.1429 137.53299,274.1429 C137.53299,269.0215 134.12,265.60754 129.0,265.60754 C129.0,265.60754 77.79999,265.60754 77.79999,265.60754 C72.67999,265.60754 69.267,269.0215 69.267,274.1429 C69.267,274.1429 69.267,325.35712 69.267,325.35712 C69.267,330.47754 72.67999,333.89246 77.79999,333.89246 ZM86.33298,282.67828 C86.33298,282.67828 120.46597,282.67828 120.46597,282.67828 C120.46597,282.67828 120.46597,316.82077 120.46597,316.82077 C120.46597,316.82077 86.33298,316.82077 86.33298,316.82077 C86.33298,316.82077 86.33298,282.67828 86.33298,282.67828 ZM180.19998,333.89246 C180.19998,333.89246 231.4,333.89246 231.4,333.89246 C236.51999,333.89246 239.93298,330.47855 239.93298,325.35712 C239.93298,325.35712 239.93298,274.1429 239.93298,274.1429 C239.93298,269.0215 236.51999,265.60754 231.4,265.60754 C231.4,265.60754 180.19998,265.60754 180.19998,265.60754 C175.07999,265.60754 171.66699,269.0215 171.66699,274.1429 C171.66699,274.1429 171.66699,325.35712 171.66699,325.35712 C171.66699,330.47754 175.07999,333.89246 180.19998,333.89246 ZM188.73297,282.67828 C188.73297,282.67828 222.866,282.67828 222.866,282.67828 C222.866,282.67828 222.866,316.82077 222.866,316.82077 C222.866,316.82077 188.73297,316.82077 188.73297,316.82077 C188.73297,316.82077 188.73297,282.67828 188.73297,282.67828 ZM77.79999,427.78452 C77.79999,427.78452 129.0,427.78452 129.0,427.78452 C134.12,427.78452 137.53299,424.37054 137.53299,419.24915 C137.53299,419.24915 137.53299,368.03494 137.53299,368.03494 C137.53299,362.91354 134.12,359.49957 129.0,359.49957 C129.0,359.49957 77.79999,359.49957 77.79999,359.49957 C72.67999,359.49957 69.267,362.91354 69.267,368.03494 C69.267,368.03494 69.267,419.24915 69.267,419.24915 C69.267,424.37054 72.67999,427.78452 77.79999,427.78452 ZM86.33298,376.5703 C86.33298,376.5703 120.46597,376.5703 120.46597,376.5703 C120.46597,376.5703 120.46597,410.71277 120.46597,410.71277 C120.46597,410.71277 86.33298,410.71277 86.33298,410.71277 C86.33298,410.71277 86.33298,376.5703 86.33298,376.5703 ZM180.19998,427.78452 C180.19998,427.78452 231.4,427.78452 231.4,427.78452 C236.51999,427.78452 239.93298,424.37054 239.93298,419.24915 C239.93298,419.24915 239.93298,368.03494 239.93298,368.03494 C239.93298,362.91354 236.51999,359.49957 231.4,359.49957 C231.4,359.49957 180.19998,359.49957 180.19998,359.49957 C175.07999,359.49957 171.66699,362.91354 171.66699,368.03494 C171.66699,368.03494 171.66699,419.24915 171.66699,419.24915 C171.66699,424.37054 175.07999,427.78452 180.19998,427.78452 ZM188.73297,376.5703 C188.73297,376.5703 222.866,376.5703 222.866,376.5703 C222.866,376.5703 222.866,410.71277 222.866,410.71277 C222.866,410.71277 188.73297,410.71277 188.73297,410.71277 C188.73297,410.71277 188.73297,376.5703 188.73297,376.5703 ZM359.4,444.85623 C411.45297,444.85623 453.267,403.03162 453.267,350.9632 C453.267,298.89578 411.45398,257.0702 359.4,257.0702 C307.34598,257.0702 265.533,298.89478 265.533,350.9632 C265.533,403.03162 307.347,444.85623 359.4,444.85623 ZM359.4,274.14194 C402.067,274.14194 436.19998,308.2844 436.19998,350.9632 C436.19998,393.64203 402.067,427.78452 359.4,427.78452 C316.73297,427.78452 282.59998,393.64203 282.59998,350.9632 C282.59998,308.2854 316.73297,274.14194 359.4,274.14194 ZM344.89297,399.6167 C346.59998,401.32416 348.306,402.1774 350.866,402.1774 C354.279,402.1774 356.839,400.46994 357.693,397.90924 C357.693,397.90924 408.89297,321.08792 408.89297,321.08792 C411.45297,316.81973 410.59998,311.69833 406.33298,309.13763 C402.06598,306.5769 396.94598,307.43015 394.386,311.69833 C394.386,311.69833 349.159,379.98425 349.159,379.98425 C349.159,379.98425 322.706,353.52393 322.706,353.52393 C319.293,350.11 314.17297,350.11 310.75897,353.52393 C307.34598,356.93787 307.34598,362.0593 310.75897,365.4742 C310.75897,365.4742 344.89297,399.6167 344.89297,399.6167 Z"/>
</svg>